<?xml version="1.0" encoding="UTF-8"?>
<svg xmlns="http://www.w3.org/2000/svg" width="370" height="370" viewBox="0 0 370 370" shape-rendering="crispEdges">
<rect width="370" height="370" fill="white"/>
<path d="M40 40h10v10h-10z M50 40h10v10h-10z M60 40h10v10h-10z M70 40h10v10h-10z M80 40h10v10h-10z M90 40h10v10h-10z M100 40h10v10h-10z M140 40h10v10h-10z M180 40h10v10h-10z M230 40h10v10h-10z M260 40h10v10h-10z M270 40h10v10h-10z M280 40h10v10h-10z M290 40h10v10h-10z M300 40h10v10h-10z M310 40h10v10h-10z M320 40h10v10h-10z M40 50h10v10h-10z M100 50h10v10h-10z M130 50h10v10h-10z M170 50h10v10h-10z M230 50h10v10h-10z M260 50h10v10h-10z M320 50h10v10h-10z M40 60h10v10h-10z M60 60h10v10h-10z M70 60h10v10h-10z M80 60h10v10h-10z M100 60h10v10h-10z M120 60h10v10h-10z M150 60h10v10h-10z M190 60h10v10h-10z M220 60h10v10h-10z M260 60h10v10h-10z M280 60h10v10h-10z M290 60h10v10h-10z M300 60h10v10h-10z M320 60h10v10h-10z M40 70h10v10h-10z M60 70h10v10h-10z M70 70h10v10h-10z M80 70h10v10h-10z M100 70h10v10h-10z M130 70h10v10h-10z M160 70h10v10h-10z M170 70h10v10h-10z M200 70h10v10h-10z M220 70h10v10h-10z M230 70h10v10h-10z M260 70h10v10h-10z M280 70h10v10h-10z M290 70h10v10h-10z M300 70h10v10h-10z M320 70h10v10h-10z M40 80h10v10h-10z M60 80h10v10h-10z M70 80h10v10h-10z M80 80h10v10h-10z M100 80h10v10h-10z M130 80h10v10h-10z M160 80h10v10h-10z M170 80h10v10h-10z M200 80h10v10h-10z M220 80h10v10h-10z M230 80h10v10h-10z M260 80h10v10h-10z M280 80h10v10h-10z M290 80h10v10h-10z M300 80h10v10h-10z M320 80h10v10h-10z M40 90h10v10h-10z M100 90h10v10h-10z M140 90h10v10h-10z M150 90h10v10h-10z M160 90h10v10h-10z M180 90h10v10h-10z M190 90h10v10h-10z M200 90h10v10h-10z M210 90h10v10h-10z M230 90h10v10h-10z M240 90h10v10h-10z M260 90h10v10h-10z M320 90h10v10h-10z M40 100h10v10h-10z M50 100h10v10h-10z M60 100h10v10h-10z M70 100h10v10h-10z M80 100h10v10h-10z M90 100h10v10h-10z M100 100h10v10h-10z M120 100h10v10h-10z M140 100h10v10h-10z M160 100h10v10h-10z M180 100h10v10h-10z M200 100h10v10h-10z M220 100h10v10h-10z M240 100h10v10h-10z M260 100h10v10h-10z M270 100h10v10h-10z M280 100h10v10h-10z M290 100h10v10h-10z M300 100h10v10h-10z M310 100h10v10h-10z M320 100h10v10h-10z M120 110h10v10h-10z M150 110h10v10h-10z M190 110h10v10h-10z M210 110h10v10h-10z M220 110h10v10h-10z M230 110h10v10h-10z M240 110h10v10h-10z M40 120h10v10h-10z M50 120h10v10h-10z M60 120h10v10h-10z M80 120h10v10h-10z M90 120h10v10h-10z M100 120h10v10h-10z M110 120h10v10h-10z M120 120h10v10h-10z M160 120h10v10h-10z M200 120h10v10h-10z M210 120h10v10h-10z M120 130h10v10h-10z M130 130h10v10h-10z M150 130h10v10h-10z M160 130h10v10h-10z M170 130h10v10h-10z M190 130h10v10h-10z M200 130h10v10h-10z M210 130h10v10h-10z M240 130h10v10h-10z M260 130h10v10h-10z M290 130h10v10h-10z M320 130h10v10h-10z M60 140h10v10h-10z M90 140h10v10h-10z M100 140h10v10h-10z M120 140h10v10h-10z M140 140h10v10h-10z M150 140h10v10h-10z M160 140h10v10h-10z M180 140h10v10h-10z M190 140h10v10h-10z M200 140h10v10h-10z M220 140h10v10h-10z M240 140h10v10h-10z M250 140h10v10h-10z M260 140h10v10h-10z M280 140h10v10h-10z M300 140h10v10h-10z M310 140h10v10h-10z M320 140h10v10h-10z M50 150h10v10h-10z M60 150h10v10h-10z M80 150h10v10h-10z M90 150h10v10h-10z M130 150h10v10h-10z M140 150h10v10h-10z M160 150h10v10h-10z M170 150h10v10h-10z M180 150h10v10h-10z M200 150h10v10h-10z M210 150h10v10h-10z M220 150h10v10h-10z M270 150h10v10h-10z M280 150h10v10h-10z M310 150h10v10h-10z M80 160h10v10h-10z M100 160h10v10h-10z M110 160h10v10h-10z M140 160h10v10h-10z M150 160h10v10h-10z M180 160h10v10h-10z M190 160h10v10h-10z M210 160h10v10h-10z M220 160h10v10h-10z M250 160h10v10h-10z M260 160h10v10h-10z M290 160h10v10h-10z M310 160h10v10h-10z M320 160h10v10h-10z M90 170h10v10h-10z M110 170h10v10h-10z M120 170h10v10h-10z M140 170h10v10h-10z M150 170h10v10h-10z M180 170h10v10h-10z M190 170h10v10h-10z M210 170h10v10h-10z M220 170h10v10h-10z M240 170h10v10h-10z M250 170h10v10h-10z M260 170h10v10h-10z M290 170h10v10h-10z M320 170h10v10h-10z M50 180h10v10h-10z M60 180h10v10h-10z M100 180h10v10h-10z M170 180h10v10h-10z M220 180h10v10h-10z M260 180h10v10h-10z M280 180h10v10h-10z M290 180h10v10h-10z M310 180h10v10h-10z M320 180h10v10h-10z M40 190h10v10h-10z M60 190h10v10h-10z M80 190h10v10h-10z M90 190h10v10h-10z M120 190h10v10h-10z M130 190h10v10h-10z M140 190h10v10h-10z M150 190h10v10h-10z M190 190h10v10h-10z M210 190h10v10h-10z M220 190h10v10h-10z M240 190h10v10h-10z M250 190h10v10h-10z M260 190h10v10h-10z M290 190h10v10h-10z M310 190h10v10h-10z M40 200h10v10h-10z M50 200h10v10h-10z M60 200h10v10h-10z M70 200h10v10h-10z M90 200h10v10h-10z M100 200h10v10h-10z M110 200h10v10h-10z M130 200h10v10h-10z M140 200h10v10h-10z M160 200h10v10h-10z M200 200h10v10h-10z M210 200h10v10h-10z M220 200h10v10h-10z M230 200h10v10h-10z M240 200h10v10h-10z M260 200h10v10h-10z M270 200h10v10h-10z M290 200h10v10h-10z M310 200h10v10h-10z M320 200h10v10h-10z M50 210h10v10h-10z M120 210h10v10h-10z M140 210h10v10h-10z M150 210h10v10h-10z M160 210h10v10h-10z M170 210h10v10h-10z M190 210h10v10h-10z M200 210h10v10h-10z M220 210h10v10h-10z M250 210h10v10h-10z M260 210h10v10h-10z M290 210h10v10h-10z M300 210h10v10h-10z M320 210h10v10h-10z M40 220h10v10h-10z M80 220h10v10h-10z M100 220h10v10h-10z M130 220h10v10h-10z M150 220h10v10h-10z M160 220h10v10h-10z M180 220h10v10h-10z M190 220h10v10h-10z M200 220h10v10h-10z M220 220h10v10h-10z M250 220h10v10h-10z M270 220h10v10h-10z M280 220h10v10h-10z M310 220h10v10h-10z M320 220h10v10h-10z M50 230h10v10h-10z M60 230h10v10h-10z M80 230h10v10h-10z M90 230h10v10h-10z M110 230h10v10h-10z M130 230h10v10h-10z M140 230h10v10h-10z M160 230h10v10h-10z M170 230h10v10h-10z M180 230h10v10h-10z M200 230h10v10h-10z M210 230h10v10h-10z M220 230h10v10h-10z M230 230h10v10h-10z M240 230h10v10h-10z M250 230h10v10h-10z M260 230h10v10h-10z M270 230h10v10h-10z M280 230h10v10h-10z M290 230h10v10h-10z M310 230h10v10h-10z M40 240h10v10h-10z M60 240h10v10h-10z M80 240h10v10h-10z M100 240h10v10h-10z M120 240h10v10h-10z M130 240h10v10h-10z M150 240h10v10h-10z M180 240h10v10h-10z M190 240h10v10h-10z M220 240h10v10h-10z M230 240h10v10h-10z M240 240h10v10h-10z M250 240h10v10h-10z M260 240h10v10h-10z M270 240h10v10h-10z M280 240h10v10h-10z M120 250h10v10h-10z M130 250h10v10h-10z M150 250h10v10h-10z M180 250h10v10h-10z M190 250h10v10h-10z M230 250h10v10h-10z M240 250h10v10h-10z M280 250h10v10h-10z M300 250h10v10h-10z M310 250h10v10h-10z M320 250h10v10h-10z M40 260h10v10h-10z M50 260h10v10h-10z M60 260h10v10h-10z M70 260h10v10h-10z M80 260h10v10h-10z M90 260h10v10h-10z M100 260h10v10h-10z M120 260h10v10h-10z M170 260h10v10h-10z M210 260h10v10h-10z M230 260h10v10h-10z M240 260h10v10h-10z M260 260h10v10h-10z M280 260h10v10h-10z M290 260h10v10h-10z M310 260h10v10h-10z M320 260h10v10h-10z M40 270h10v10h-10z M100 270h10v10h-10z M120 270h10v10h-10z M140 270h10v10h-10z M150 270h10v10h-10z M190 270h10v10h-10z M240 270h10v10h-10z M280 270h10v10h-10z M290 270h10v10h-10z M320 270h10v10h-10z M40 280h10v10h-10z M60 280h10v10h-10z M70 280h10v10h-10z M80 280h10v10h-10z M100 280h10v10h-10z M120 280h10v10h-10z M130 280h10v10h-10z M140 280h10v10h-10z M160 280h10v10h-10z M200 280h10v10h-10z M240 280h10v10h-10z M250 280h10v10h-10z M260 280h10v10h-10z M270 280h10v10h-10z M280 280h10v10h-10z M40 290h10v10h-10z M60 290h10v10h-10z M70 290h10v10h-10z M80 290h10v10h-10z M100 290h10v10h-10z M130 290h10v10h-10z M150 290h10v10h-10z M160 290h10v10h-10z M170 290h10v10h-10z M190 290h10v10h-10z M200 290h10v10h-10z M210 290h10v10h-10z M240 290h10v10h-10z M270 290h10v10h-10z M280 290h10v10h-10z M300 290h10v10h-10z M40 300h10v10h-10z M60 300h10v10h-10z M70 300h10v10h-10z M80 300h10v10h-10z M100 300h10v10h-10z M120 300h10v10h-10z M140 300h10v10h-10z M150 300h10v10h-10z M160 300h10v10h-10z M180 300h10v10h-10z M190 300h10v10h-10z M200 300h10v10h-10z M220 300h10v10h-10z M230 300h10v10h-10z M270 300h10v10h-10z M280 300h10v10h-10z M290 300h10v10h-10z M320 300h10v10h-10z M40 310h10v10h-10z M100 310h10v10h-10z M120 310h10v10h-10z M140 310h10v10h-10z M160 310h10v10h-10z M170 310h10v10h-10z M180 310h10v10h-10z M200 310h10v10h-10z M210 310h10v10h-10z M220 310h10v10h-10z M230 310h10v10h-10z M240 310h10v10h-10z M250 310h10v10h-10z M280 310h10v10h-10z M310 310h10v10h-10z M40 320h10v10h-10z M50 320h10v10h-10z M60 320h10v10h-10z M70 320h10v10h-10z M80 320h10v10h-10z M90 320h10v10h-10z M100 320h10v10h-10z M120 320h10v10h-10z M140 320h10v10h-10z M150 320h10v10h-10z M180 320h10v10h-10z M190 320h10v10h-10z M220 320h10v10h-10z M230 320h10v10h-10z M240 320h10v10h-10z M250 320h10v10h-10z M270 320h10v10h-10z M280 320h10v10h-10z M310 320h10v10h-10z M320 320h10v10h-10z " fill="black"/>
</svg>
